<svg width="258" height="88" viewBox="0 0 258 88" fill="none" xmlns="http://www.w3.org/2000/svg">
<path d="M69.556 29.42H68.62V48.788C68.62 50.912 69.448 51.308 71.068 51.308H71.392C75.46 51.308 78.124 47.168 78.124 40.76C78.124 33.848 75.064 29.42 69.556 29.42ZM71.608 53H58.936V51.488C61.348 51.236 61.564 50.948 61.564 49.076V31.652C61.564 29.78 61.348 29.492 58.936 29.24V27.728H70.78C80.752 27.728 85.432 33.056 85.432 40.076C85.432 48.212 80.032 53 71.608 53ZM101.206 43.532V49.22C101.206 51.092 101.818 51.236 104.194 51.488V53H91.3779V51.488C93.7539 51.236 94.3299 51.092 94.3299 49.22V43.712L87.0219 30.572C86.4819 29.564 85.9779 29.384 84.9339 29.24V27.728H97.3539V29.24C95.4099 29.312 94.9059 29.636 94.9059 30.536C94.9059 31.292 95.1939 31.868 95.7339 32.84L100.342 40.76L104.374 32.912C104.77 32.084 105.202 31.148 105.202 30.536C105.202 29.636 104.41 29.312 102.682 29.24V27.728H110.026V29.24C109.054 29.384 108.406 29.672 107.938 30.572L101.206 43.532ZM122.411 40.94H120.827V48.86C120.827 50.804 121.475 51.308 123.347 51.308H123.635C126.119 51.308 127.847 49.652 127.847 46.052C127.847 42.776 126.047 40.94 122.411 40.94ZM121.691 29.42H120.827V38.996H121.727C124.787 38.996 126.371 37.34 126.371 34.1C126.371 30.896 124.571 29.42 121.691 29.42ZM124.571 53H111.143V51.488C113.555 51.236 113.771 50.948 113.771 49.076V31.652C113.771 29.78 113.555 29.492 111.143 29.24V27.728H124.211C129.791 27.728 133.067 29.852 133.067 34.028C133.067 37.664 129.791 39.5 126.299 39.86C131.087 40.004 134.687 42.2 134.687 46.16C134.687 50.804 131.195 53 124.571 53ZM146.97 29.42H146.034V48.788C146.034 50.912 146.862 51.308 148.482 51.308H148.806C152.874 51.308 155.538 47.168 155.538 40.76C155.538 33.848 152.478 29.42 146.97 29.42ZM149.022 53H136.35V51.488C138.762 51.236 138.978 50.948 138.978 49.076V31.652C138.978 29.78 138.762 29.492 136.35 29.24V27.728H148.194C158.166 27.728 162.846 33.056 162.846 40.076C162.846 48.212 157.446 53 149.022 53ZM179.229 48.5L177.933 45.188H168.753L167.529 48.464C167.349 49.004 167.241 49.436 167.241 49.796C167.241 50.984 168.249 51.38 170.193 51.488V53H162.453V51.488C163.425 51.344 164.145 51.128 164.541 50.156L172.029 30.644L170.805 27.656H178.329L187.293 50.156C187.653 51.092 188.373 51.344 189.417 51.488V53H176.709V51.488C178.509 51.416 179.517 51.056 179.517 49.832C179.517 49.472 179.409 49.04 179.229 48.5ZM173.217 33.272L169.473 43.244H177.141L173.217 33.272ZM200.21 31.652V48.896C200.21 50.84 201.002 51.308 202.982 51.308H203.99C206.402 51.308 207.698 49.904 210.902 44.468H212.45L211.082 53H190.526V51.488C192.938 51.236 193.154 50.948 193.154 49.076V31.652C193.154 29.78 192.938 29.492 190.526 29.24V27.728H202.802V29.24C200.426 29.492 200.21 29.78 200.21 31.652ZM222.869 53.36C219.269 53.36 216.101 52.28 214.409 50.948L214.013 44.684H215.921C216.821 48.716 219.233 51.632 222.869 51.632C225.425 51.632 227.081 50.408 227.081 48.176C227.081 45.836 225.569 44.828 221.573 43.604C216.785 42.2 214.157 39.86 214.157 35.504C214.157 30.5 217.973 27.368 223.301 27.368C226.577 27.368 229.313 28.232 231.077 29.528V35H229.457C228.629 31.364 226.649 29.06 223.301 29.06C221.069 29.06 219.593 30.356 219.593 32.408C219.593 34.748 221.033 35.72 224.741 36.836C229.529 38.312 232.697 40.22 232.697 45.26C232.697 50.804 228.269 53.36 222.869 53.36Z" fill="white"/>
<path d="M63.928 76.4092C61.768 76.4092 59.92 75.7372 58.912 74.8492L58.768 70.7932H59.464C60.016 73.8652 61.48 75.6412 63.928 75.6412C66.136 75.6412 67.456 74.3212 67.456 72.4972C67.456 70.4812 66.4 69.7132 63.28 68.3932C60.808 67.3612 58.96 66.3052 58.96 63.5452C58.96 61.0492 60.832 59.0812 64 59.0812C65.848 59.0812 67.576 59.6092 68.8 60.4732V64.0012H68.104C67.744 61.2652 66.304 59.8492 64 59.8492C62.08 59.8492 60.976 61.0732 60.976 62.7052C60.976 64.5532 61.816 65.2732 64.504 66.4012C67.768 67.7692 69.496 68.9932 69.496 71.6572C69.496 74.6572 66.952 76.4092 63.928 76.4092ZM82.3366 73.5292L80.9926 70.2652H74.1526L72.8806 73.5052C72.7366 73.8652 72.6406 74.2012 72.6406 74.4652C72.6406 75.2092 73.1926 75.4732 74.8246 75.5212V76.1692H70.0966V75.5212C70.7686 75.4252 71.2726 75.2812 71.5126 74.6332L77.0326 60.6892L76.3606 59.1052H78.7606L85.1446 74.6332C85.4086 75.2812 85.9126 75.4252 86.5606 75.5212V76.1692H80.4166V75.5212C82.0246 75.4732 82.5766 75.2332 82.5766 74.4892C82.5766 74.2012 82.4806 73.8892 82.3366 73.5292ZM77.5126 61.6972L74.4406 69.4972H80.6806L77.5126 61.6972ZM90.4278 61.6732V70.2652C90.4278 73.3372 91.9398 75.1852 94.5798 75.1852C97.7238 75.1852 99.6198 73.6252 99.6198 70.0732V61.7212C99.6198 60.3532 99.2598 60.1612 97.2678 59.9692V59.3212H102.668V59.9692C100.892 60.1852 100.556 60.3532 100.556 61.7212V70.4812C100.556 74.5132 97.8678 76.4092 94.5318 76.4092C90.6678 76.4092 88.1718 74.5372 88.1718 70.4092V61.6732C88.1718 60.3052 87.8358 60.1852 86.0598 59.9692V59.3212H92.5398V59.9692C90.7638 60.1852 90.4278 60.3052 90.4278 61.6732ZM117.162 72.1612V61.7212C117.162 60.3532 116.802 60.1612 114.81 59.9692V59.3212H120.21V59.9692C118.434 60.1852 118.098 60.3532 118.098 61.7212V76.2652H117.498L106.674 62.3212V73.7692C106.674 75.1372 107.034 75.3292 109.026 75.5212V76.1692H103.626V75.5212C105.402 75.3052 105.738 75.1372 105.738 73.7692V61.4332C104.898 60.3532 104.562 60.0172 103.578 59.9692V59.3212H107.298L117.162 72.1612ZM132.657 73.5292L131.313 70.2652H124.473L123.201 73.5052C123.057 73.8652 122.961 74.2012 122.961 74.4652C122.961 75.2092 123.513 75.4732 125.145 75.5212V76.1692H120.417V75.5212C121.089 75.4252 121.593 75.2812 121.833 74.6332L127.353 60.6892L126.681 59.1052H129.081L135.465 74.6332C135.729 75.2812 136.233 75.4252 136.881 75.5212V76.1692H130.737V75.5212C132.345 75.4732 132.897 75.2332 132.897 74.4892C132.897 74.2012 132.801 73.8892 132.657 73.5292ZM127.833 61.6972L124.761 69.4972H131.001L127.833 61.6972ZM142.936 76.4092C140.776 76.4092 138.928 75.7372 137.92 74.8492L137.776 70.7932H138.472C139.024 73.8652 140.488 75.6412 142.936 75.6412C145.144 75.6412 146.464 74.3212 146.464 72.4972C146.464 70.4812 145.408 69.7132 142.288 68.3932C139.816 67.3612 137.968 66.3052 137.968 63.5452C137.968 61.0492 139.84 59.0812 143.008 59.0812C144.856 59.0812 146.584 59.6092 147.808 60.4732V64.0012H147.112C146.752 61.2652 145.312 59.8492 143.008 59.8492C141.088 59.8492 139.984 61.0732 139.984 62.7052C139.984 64.5532 140.824 65.2732 143.512 66.4012C146.776 67.7692 148.504 68.9932 148.504 71.6572C148.504 74.6572 145.96 76.4092 142.936 76.4092Z" fill="white"/>
<path d="M31.2694 29.6237C26.679 29.6237 22.9446 25.9192 22.9446 21.3667H27.2566C27.2566 23.5402 29.0572 25.3084 31.2694 25.3084C33.4816 25.3084 35.2822 23.5402 35.2822 21.3667H39.5942C39.5942 25.9203 35.8598 29.6237 31.2694 29.6237Z" fill="white"/>
<path d="M49.6268 59.2107H48.881C48.881 56.0602 46.09 53.4966 42.6592 53.4966C39.2284 53.4966 36.4374 56.0602 36.4374 59.2107H35.6917C35.6917 55.6821 38.8178 52.8114 42.6603 52.8114C46.5028 52.8114 49.629 55.6821 49.629 59.2107H49.6268Z" fill="white"/>
<path d="M40.1926 54.6156V54.9095H44.5046V54.3817C43.9259 54.1981 43.3046 54.0965 42.6582 54.0965C41.7737 54.0965 40.9373 54.2834 40.1926 54.6156Z" fill="white"/>
<path d="M13.103 50.9996L15.1067 53.0048L13.7953 50.3068L13.103 50.9996Z" fill="white"/>
<path d="M17.6704 30.2488V46.4285L15.9463 48.154L17.9423 52.2596L21.9824 48.2163V34.5653H25.7714V78.5048H30.0834V30.2488H17.6704Z" fill="white"/>
<path d="M32.0917 30.3111V78.5671H36.4037V73.8223H35.1185V59.8107H35.0912V59.2107C35.0912 57.753 35.576 56.3979 36.4037 55.2756V34.6265H40.1926V52.5951C40.9657 52.3481 41.7956 52.2115 42.6582 52.2115C43.2948 52.2115 43.9139 52.2858 44.5046 52.4235V30.3111H32.0906H32.0917Z" fill="white"/>
<path d="M20.7771 58.684C19.6043 58.684 18.5867 58.1343 18.0473 57.1585L13.2362 48.4512L11.772 48.0731C12.0067 47.1618 12.4916 46.8153 12.8573 46.6853C13.5638 46.4329 14.1578 46.8317 14.2703 46.9148L14.4221 47.0273L18.4698 54.3533C19.3565 53.8365 20.705 54.1413 21.7085 54.4451C23.5298 54.9959 23.8912 55.8865 23.8738 56.5367C23.8486 57.4448 22.9904 58.2611 21.738 58.566C21.4104 58.6458 21.0883 58.684 20.7771 58.6851V58.684ZM19.5607 56.3258C19.8642 56.8722 20.4342 56.9705 20.8611 56.952C21.4672 56.9301 21.9345 56.6733 22.1005 56.5094C21.9978 56.422 21.7511 56.2602 21.2106 56.0974C20.0433 55.7444 19.5585 55.7903 19.4012 55.8275C19.4111 55.9532 19.4799 56.1728 19.5607 56.3247V56.3258Z" fill="white"/>
<path d="M37.8733 67.1793H35.7659V72.806H37.8733V67.1793Z" fill="white"/>
<path d="M37.9934 72.9262H35.6458V67.0602H37.9934V72.9262ZM35.8849 72.6858H37.7532V67.2995H35.8849V72.6858Z" fill="white"/>
<path d="M49.6267 67.1793H39.177V72.806H49.6267V67.1793Z" fill="white"/>
<path d="M49.7468 72.9262H39.0569V67.0602H49.7468V72.9262ZM39.296 72.6858H49.5066V67.2995H39.296V72.6858Z" fill="white"/>
<path d="M37.8035 61.0389H35.696V64.373H37.8035V61.0389Z" fill="white"/>
<path d="M37.9236 64.4921H35.5759V60.9187H37.9236V64.4921ZM35.8162 64.2528H37.6844V61.1581H35.8162V64.2528Z" fill="white"/>
<path d="M49.6267 61.0389H39.177V64.373H49.6267V61.0389Z" fill="white"/>
<path d="M49.7468 64.4921H39.0569V60.9187H49.7468V64.4921ZM39.296 64.2528H49.5066V61.1581H39.296V64.2528Z" fill="white"/>
<path d="M36.4352 59.5692H35.6895V61.0389H36.4352V59.5692Z" fill="white"/>
<path d="M36.5563 61.1592H35.5703V59.45H36.5563V61.1592ZM35.8094 60.9187H36.3161V59.6894H35.8094V60.9187Z" fill="white"/>
<path d="M49.6257 59.5692H48.8799V61.0389H49.6257V59.5692Z" fill="white"/>
<path d="M49.7467 61.1592H48.7607V59.45H49.7467V61.1592ZM48.9999 60.9187H49.5065V59.6894H48.9999V60.9187Z" fill="white"/>
<path d="M49.6268 59.6172H48.881C48.881 56.1837 46.09 53.3906 42.6592 53.3906C39.2284 53.3906 36.4374 56.1837 36.4374 59.6172H35.6917C35.6917 55.7717 38.8178 52.6431 42.6603 52.6431C46.5028 52.6431 49.629 55.7717 49.629 59.6172H49.6268Z" fill="white"/>
<path d="M49.7469 59.7364H48.7609V59.6161C48.7609 56.2482 46.0234 53.5086 42.6581 53.5086C39.2928 53.5086 36.5553 56.2482 36.5553 59.6161V59.7364H35.5693V59.6161C35.5693 55.7051 38.749 52.5218 42.657 52.5218C46.565 52.5218 49.7447 55.704 49.7447 59.6161V59.7364H49.7469ZM48.9989 59.497H49.5056C49.4411 55.7728 46.3947 52.7633 42.6581 52.7633C38.9215 52.7633 35.8751 55.7739 35.8106 59.497H36.3173C36.3806 56.0526 39.2011 53.2704 42.6581 53.2704C46.1151 53.2704 48.9345 56.0526 48.9989 59.497Z" fill="white"/>
<path d="M32.8822 23.9784H29.9122V20.7263H23.009L23.0298 19.3352C23.0724 16.3945 24.0016 14.1358 25.7913 12.6212C27.9718 10.7765 30.6973 10.7241 31.3612 10.7405C32.0709 10.6891 35.2768 10.5842 37.5524 12.6299C39.271 14.174 39.995 16.4776 39.7034 19.4762L39.5822 20.7252H32.8833V23.9773L32.8822 23.9784ZM31.3972 17.9823H36.7924C36.7498 16.4874 36.3163 15.3564 35.4952 14.6111C34.0047 13.2572 31.5872 13.4779 31.5632 13.4801L31.4299 13.4932L31.288 13.4845C31.2793 13.4845 29.2603 13.3894 27.7742 14.6657C26.893 15.423 26.3361 16.5355 26.1123 17.9812H31.3983L31.3972 17.9823Z" fill="white"/>
<path d="M37.322 14.8745C39.6631 14.8166 43.6726 14.433 44.4992 12.0376C44.7504 11.2213 44.4992 10.2498 44.0843 9.37451C45.1861 10.5394 45.7997 12.2791 44.912 13.7358C43.4346 16.1071 40.4689 17.2065 37.7828 17.9823L37.322 14.8745Z" fill="white"/>
<path d="M25.3894 17.8807C21.3209 16.8754 15.1439 13.62 19.0879 9.27289C17.4697 12.4878 19.8697 13.9981 23.0341 14.5226C23.9426 14.6789 24.9351 14.7816 25.8502 14.7728L25.3894 17.8807Z" fill="white"/>
<path d="M29.5168 11.5677L31.6734 8.43802L33.8288 11.5677H29.5168Z" fill="white"/>
</svg>
